Coordinates
version=1
nRows=22
nColumns=24
inDegrees=yes

Units are S.I. units (second, meters, Newtons, ...)
Angles are in degrees.

endheader
time	pelvis_tilt	pelvis_list	pelvis_rotation	pelvis_tx	pelvis_ty	pelvis_tz	hip_flexion_r	hip_adduction_r	hip_rotation_r	knee_angle_r	ankle_angle_r	subtalar_angle_r	mtp_angle_r	hip_flexion_l	hip_adduction_l	hip_rotation_l	knee_angle_l	ankle_angle_l	subtalar_angle_l	mtp_angle_l	lumbar_extension	lumbar_bending	lumbar_rotation
      1.14950000	     -0.69783815	      7.01545463	     -1.01979309	      0.13548626	      0.99555055	      0.28049676	     22.07672529	     -7.35522234	      0.58664463	    -70.63725390	      5.40117069	     -9.22213863	     -2.19504769	      9.51022245	     12.27975865	     -0.42809086	    -12.29725842	      3.02561851	     -9.10807477	      4.75084486	     -0.06059785	     -4.88190650	      2.93402540
      1.15366667	     -0.66006489	      6.91256656	     -1.02991465	      0.14057491	      0.99634636	      0.28044037	     22.57033018	     -7.17328970	      0.73119523	    -70.28186475	      5.88429609	     -9.40788672	     -2.26773742	      8.94773847	     12.18795772	     -0.30546725	    -11.94743737	      3.10066486	     -9.08302293	      4.71562127	     -0.13409542	     -4.76321540	      2.87070884
      1.15783333	     -0.60672231	      6.81718383	     -1.03950738	      0.14568052	      0.99713318	      0.28038717	     23.02570532	     -7.00476642	      0.86578026	    -69.86024850	      6.34196582	     -9.60707007	     -2.42380892	      8.35710808	     12.10614879	     -0.15585025	    -11.57570525	      3.18051261	     -9.09509969	      4.63615431	     -0.21733657	     -4.66448941	      2.78313408
      1.16200000	     -0.61745559	      6.69499058	     -1.04432347	      0.15073392	      0.99779097	      0.28035810	     23.53468323	     -6.79367596	      1.00467626	    -69.37579382	      6.82352838	     -9.69082511	     -2.47994227	      7.87459109	     11.98585606	     -0.06062567	    -11.27437212	      3.25900445	     -9.04977874	      4.60277346	     -0.23449139	     -4.51344998	      2.73455865
      1.16616667	     -0.59608922	      6.58362427	     -1.04714565	      0.15581771	      0.99845706	      0.28032291	     23.98424162	     -6.60400703	      1.12818959	    -68.82854995	      7.31229316	     -9.79461826	     -2.53457098	      7.34737952	     11.87866758	      0.03537168	    -10.95382459	      3.35602062	     -9.00927478	      4.56865608	     -0.27722382	     -4.37295691	      2.67619932
      1.17033333	     -0.54076559	      6.49920864	     -1.05066949	      0.16088610	      0.99910808	      0.28029020	     24.38315060	     -6.44663109	      1.25592174	    -68.23061337	      7.76295593	     -9.91248367	     -2.69977270	      6.77167068	     11.80576692	      0.18936057	    -10.60591859	      3.44522154	     -9.01478970	      4.46750401	     -0.37955989	     -4.29100678	      2.56893602
      1.17450000	     -0.56586563	      6.37610455	     -1.04407326	      0.16593124	      0.99963294	      0.28027272	     24.84380077	     -6.23826021	      1.37329637	    -67.55948391	      8.21727443	     -9.96154648	     -2.75010869	      6.31772207	     11.68146138	      0.27852089	    -10.32457294	      3.53689848	     -8.97621790	      4.43277159	     -0.37547215	     -4.13779392	      2.52182346
      1.17866667	     -0.54468395	      6.27785643	     -1.03506216	      0.17097327	      1.00016172	      0.28026232	     25.23389501	     -6.06045761	      1.49174779	    -66.83465700	      8.68026094	    -10.03005626	     -2.81624690	      5.80832623	     11.58624372	      0.39188983	    -10.03067221	      3.63977664	     -8.94868338	      4.38720297	     -0.42749078	     -4.03764882	      2.45153633
      1.18283333	     -0.55234541	      6.17056313	     -1.02336442	      0.17601166	      1.00060742	      0.28024567	     25.63560316	     -5.87406074	      1.59973712	    -66.05182587	      9.10072227	    -10.09469802	     -2.87751898	      5.33240048	     11.48076207	      0.50270001	     -9.73890781	      3.74324224	     -8.92952273	      4.34464096	     -0.45133488	     -3.91101781	      2.37752316
      1.18700000	     -0.53936905	      6.07912104	     -1.00736612	      0.18104713	      1.00103264	      0.28023264	     25.99432760	     -5.70942978	      1.70268245	    -65.21483376	      9.51386739	    -10.15745474	     -2.94571261	      4.83378987	     11.39287001	      0.62107543	     -9.44372554	      3.84243774	     -8.92189194	      4.29683690	     -0.49773614	     -3.80662010	      2.29397581
      1.19116667	     -0.55794935	      5.99407365	     -0.98594312	      0.18607002	      1.00136052	      0.28021518	     26.37108433	     -5.55270373	      1.80149876	    -64.32868746	      9.89254228	    -10.21811012	     -3.00608725	      4.37351649	     11.31084342	      0.74188456	     -9.15395483	      3.94265688	     -8.91955083	      4.25438930	     -0.51429490	     -3.70905585	      2.21284344
      1.19533333	     -0.53188747	      5.92097434	     -0.96358227	      0.19109036	      1.00171410	      0.28018604	     26.67387376	     -5.41165764	      1.90024325	    -63.37882902	     10.20654478	    -10.29725430	     -3.31858195	      3.83587596	     11.25140232	      0.95734742	     -8.80269494	      3.95666409	     -9.06180225	      4.04236505	     -0.58579343	     -3.63806033	      2.02914777
      1.19950000	     -0.57342672	      5.83053795	     -0.92660216	      0.19610953	      1.00192801	      0.28016665	     27.02622095	     -5.25529380	      1.97600993	    -62.37784719	     10.56371591	    -10.35653886	     -3.37082914	      3.42378820	     11.16008179	      1.05301318	     -8.56474327	      4.10777538	     -9.02925931	      4.00771804	     -0.56280868	     -3.52956342	      1.99740061
      1.20366667	     -0.57483839	      5.75017977	     -0.89283625	      0.20113094	      1.00215773	      0.28015690	     27.31162567	     -5.11050805	      2.05387881	    -61.31986079	     10.87166446	    -10.44979188	     -3.43664580	      2.95268444	     11.08086329	      1.17381200	     -8.29107264	      4.21154390	     -9.02363680	      3.96465115	     -0.59666548	     -3.43856810	      1.92069781
      1.20783333	     -0.58652101	      5.68396272	     -0.85625575	      0.20614096	      1.00231007	      0.28013488	     27.59213979	     -4.98481500	      2.12991819	    -60.21900371	     11.13155725	    -10.54659967	     -3.50537532	      2.49163571	     11.01856621	      1.31028841	     -8.01353367	      4.30620404	     -9.04487597	      3.92069483	     -0.61892628	     -3.36308217	      1.83156430
      1.21200000	     -0.61339331	      5.61734199	     -0.81459066	      0.21114807	      1.00240662	      0.28011291	     27.86495360	     -4.86099136	      2.19941892	    -59.06379350	     11.35453272	    -10.64817538	     -3.57301855	      2.04922931	     10.95503883	      1.45690888	     -7.74061325	      4.39621849	     -9.08199015	      3.87854454	     -0.62206352	     -3.28762977	      1.73997627
      1.21616667	     -0.61620967	      5.55255116	     -0.77070352	      0.21617313	      1.00252039	      0.28009546	     28.08455591	     -4.74634514	      2.25098442	    -57.85253640	     11.53195189	    -10.77882458	     -3.66038601	      1.56678105	     10.89380419	      1.61702700	     -7.43999830	      4.46997461	     -9.15069963	      3.82464652	     -0.66362203	     -3.22650129	      1.62752807
      1.22033333	     -0.60448367	      5.52833035	     -0.73738511	      0.22118497	      1.00257734	      0.28006733	     28.28001696	     -4.67391911	      2.32606898	    -56.61342462	     11.65426250	    -10.93581000	     -3.82390475	      1.05539390	     10.88123208	      1.82843839	     -7.11067944	      4.51880882	     -9.29314052	      3.72318785	     -0.71124461	     -3.19974403	      1.48232957
      1.22450000	     -0.67111084	      5.46619197	     -0.67901253	      0.22618922	      1.00250637	      0.28004578	     28.52839401	     -4.56856325	      2.36108866	    -55.31686063	     11.79906108	    -10.99161754	     -3.89427641	      0.67075358	     10.81711396	      1.95431339	     -6.86708834	      4.60234071	     -9.31604576	      3.68112077	     -0.66895545	     -3.12858385	      1.42680366
      1.22866667	     -0.66364129	      5.44032093	     -0.64269274	      0.23120736	      1.00248251	      0.28002144	     28.68150571	     -4.50098474	      2.41899623	    -53.98568169	     11.84988744	    -11.15741221	     -4.05730527	      0.16803604	     10.79932275	      2.14871351	     -6.54742854	      4.65698335	     -9.44145437	      3.58176754	     -0.71740716	     -3.10124281	      1.29399084
      1.23283333	     -0.72939236	      5.39305462	     -0.58330229	      0.23621920	      1.00234079	      0.27999504	     28.88563280	     -4.42112241	      2.43928604	    -52.60476619	     11.92319264	    -11.20302309	     -4.13341062	     -0.21844501	     10.74949537	      2.27349568	     -6.30311634	      4.73554976	     -9.47182228	      3.53664261	     -0.67049551	     -3.04437319	      1.23921365
      1.23700000	     -0.70948136	      5.37709286	     -0.55186891	      0.24124668	      1.00226792	      0.27999743	     28.98295976	     -4.36885983	      2.48309235	    -51.19594016	     11.91279556	    -11.33980522	     -4.29825526	     -0.74046843	     10.73773833	      2.45790102	     -5.96972532	      4.78635810	     -9.58900301	      3.43471194	     -0.73970472	     -3.04100730	      1.11403441
